<svg xmlns="http://www.w3.org/2000/svg" viewBox="0 0 640 220" role="img" aria-label="Ship — Deploy Docker apps to plain Linux servers">
  <style>
    .logo-navy { fill: #15375A; }
    .logo-teal { fill: #149B94; }
    .logo-hull { fill: #176C7D; }
    .title { font: 700 48px -apple-system, BlinkMacSystemFont, 'Segoe UI', Helvetica, Arial, sans-serif; fill: #15375A; }
    .tagline { font: 500 18px -apple-system, BlinkMacSystemFont, 'Segoe UI', Helvetica, Arial, sans-serif; fill: #176C7D; }
    .subtag { font: 400 15px -apple-system, BlinkMacSystemFont, 'Segoe UI', Helvetica, Arial, sans-serif; fill: #4A6678; }
  </style>

  <g transform="translate(235 8) scale(1.05)">
    <polygon class="logo-navy" points="82.4 2.3 52.9 43.4 82.4 55"/>
    <polyline class="logo-navy" points="2.4 28.2 30.5 85.4 35.3 85.3 79.8 58.8 2.4 28.2"/>
    <polygon class="logo-teal" points="86.9 2.2 86.9 55.1 116.5 43.4"/>
    <polygon class="logo-teal" points="89.3 58.8 133.8 85.3 138.8 85.3 167.1 28.2"/>
    <polyline class="logo-hull" points="84.8 60.9 35.5 85.3 133.6 85.3 84.8 60.9"/>
    <polygon class="logo-navy" points="32 88.9 35 94.8 52.6 94.8 49.4 88.9"/>
    <polygon class="logo-navy" points="53.5 88.9 56.9 94.8 112.6 94.8 115.8 88.9"/>
    <polygon class="logo-navy" points="116.7 94.8 134.3 94.8 137.2 88.9 119.7 88.9"/>
  </g>

  <text class="title" x="320" y="145" text-anchor="middle">Ship</text>
  <text class="tagline" x="320" y="175" text-anchor="middle">Deploy Docker apps to plain Linux servers</text>
  <text class="subtag" x="320" y="202" text-anchor="middle">One Go binary · ship.yml · SSH · No Kubernetes</text>
</svg>